<?xml version="1.0" standalone="no"?><!DOCTYPE svg PUBLIC "-//W3C//DTD SVG 1.1//EN" "http://www.w3.org/Graphics/SVG/1.1/DTD/svg11.dtd"><svg t="1495442179210" class="icon" style="" viewBox="0 0 1024 1024" version="1.1" xmlns="http://www.w3.org/2000/svg" p-id="1503" xmlns:xlink="http://www.w3.org/1999/xlink" width="32" height="32"><defs><style type="text/css"></style></defs><path d="M975.870328 518.058996l-50.675146-227.957829-32.969902 0 0-19.74981L665.259034 36.81651 183.028035 36.81651l0 253.284657-58.31208 0L74.063321 518.058996l-5.013177 0 0 354.597087c0 41.901319 34.08326 75.984578 75.985602 75.984578L904.889717 948.640662c41.901319 0 75.985602-34.081213 75.987648-75.984578L980.877365 518.058996 975.870328 518.058996zM923.966191 518.058996l-31.740912 0L892.225279 375.164518 923.966191 518.058996zM676.933935 121.521704l139.233088 143.252635L676.933935 264.774339 676.933935 121.521704zM626.275161 87.47426l0 227.956805 215.293391 0L841.568553 518.058996 702.264856 518.058996l0 25.326828c0 97.764628-79.536474 177.300079-177.301102 177.300079-97.765651 0-177.301102-79.535451-177.301102-177.300079l0-25.326828L233.684762 518.058996 233.684762 87.47426 626.275161 87.47426zM165.354514 340.758917l17.673521 0L183.028035 518.058996l-57.07695 0L165.354514 340.758917zM930.219615 872.657106c0 13.964036-11.366885 25.327852-25.329898 25.327852L145.035746 897.984958c-13.963013 0-25.328875-11.363815-25.328875-25.327852L119.706871 568.714699l178.696892 0c12.639878 113.819279 109.426225 202.629977 226.558969 202.629977 117.130697 0 213.919091-88.810698 226.555899-202.629977l178.699961 0L930.218592 872.657106z" p-id="1504" fill="#db5137"></path></svg>