<?xml version="1.0" standalone="no"?><!DOCTYPE svg PUBLIC "-//W3C//DTD SVG 1.1//EN" "http://www.w3.org/Graphics/SVG/1.1/DTD/svg11.dtd"><svg t="1495441919170" class="icon" style="" viewBox="0 0 1024 1024" version="1.1" xmlns="http://www.w3.org/2000/svg" p-id="980" xmlns:xlink="http://www.w3.org/1999/xlink" width="32" height="32"><defs><style type="text/css"></style></defs><path d="M947.104 344.896c-52.032 273.568-357.888 484.352-453.216 484.352-91.872 0-399.552-210.784-451.776-484.352L41.856 344.896c-6.048-20.576-6.752-42.144-6.752-64.544C35.104 147.04 145.056 32 286.4 32c84.032 0 161.216 40.992 207.872 100C540.896 72.992 617.12 32 701.184 32c141.344 0 255.968 115.04 255.968 248.352 0 22.4-3.488 43.968-9.536 64.544L947.104 344.896zM701.216 102.784c-66.272 0-122.272 17.856-143.936 73.28-1.248 0.48-2.336 0.928-3.552 1.376-10.88 19.232-34.656 37.792-60.192 37.792-25.088 0-44.768-18.048-55.872-36.736-0.704-0.288-1.376-0.544-2.08-0.832-21.216-56.224-83.136-74.88-150.048-74.88-84.992 0-178.016 99.072-178.016 179.232 0 2.432 0.64 4.672 0.768 7.072C107.616 295.04 106.336 300.192 106.336 306.816c0 225.088 321.568 452.864 387.584 452.864 68.8 0 386.016-227.776 386.016-452.864 0-2.592-0.64-4.416-0.736-6.88 0.768-5.952 1.92-11.776 1.92-17.92C881.088 201.856 786.208 102.784 701.216 102.784z" p-id="981" fill="#db5137"></path><path d="M992 992l-288 0c-17.568 0-32-13.76-32-32s14.432-32 32-32l288 0c17.568 0 32 13.76 32 32S1009.568 992 992 992z" p-id="982" fill="#db5137"></path><path d="M966.624 979.104l-157.376-157.408c-12.416-12.448-12.416-32.64 0-45.088 12.416-12.448 32.544-12.448 44.96 0l157.376 155.808c12.416 12.896 12.416 33.792 0 46.688C999.168 992 979.04 992 966.624 979.104z" p-id="983" fill="#db5137"></path><path d="M320 992 32 992c-17.568 0-32-13.76-32-32s14.432-32 32-32l288 0c17.568 0 32 13.76 32 32S337.568 992 320 992z" p-id="984" fill="#db5137"></path><path d="M214.752 820.704l-157.376 157.376c-12.416 12.896-32.544 12.896-44.96 0C0 965.184 0 944.288 12.416 931.392l157.376-155.776c12.416-12.448 32.544-12.448 44.96 0C227.168 788.064 227.168 808.256 214.752 820.704z" p-id="985" fill="#db5137"></path></svg>