<?xml version="1.0" standalone="no"?><!DOCTYPE svg PUBLIC "-//W3C//DTD SVG 1.1//EN" "http://www.w3.org/Graphics/SVG/1.1/DTD/svg11.dtd"><svg t="1495442192594" class="icon" style="" viewBox="0 0 1024 1024" version="1.1" xmlns="http://www.w3.org/2000/svg" p-id="1675" xmlns:xlink="http://www.w3.org/1999/xlink" width="32" height="32"><defs><style type="text/css"></style></defs><path d="M335.86688 548.11136c-24.25344-5.00736-39.80288-28.65664-34.80576-52.84864 4.99712-24.192 28.68736-39.66976 52.88448-34.67264 24.18688 4.99712 39.79776 28.65664 34.81088 52.7872C383.75936 537.56928 360.1152 553.11872 335.86688 548.11136L335.86688 548.11136 335.86688 548.11136zM380.21632 378.496c4.99712-24.19712 28.64128-39.74656 52.8896-34.73408 24.192 4.99712 39.79776 28.65664 34.80064 52.84864-4.99712 24.18688-28.6976 39.72608-52.8896 34.72896C390.83008 426.33728 375.22432 402.68288 380.21632 378.496L380.21632 378.496 380.21632 378.496zM459.3664 261.7088c4.99712-24.18688 28.64128-39.73632 52.8896-34.72896 24.19712 4.99712 39.80288 28.65664 34.80576 52.84352-4.99712 24.19712-28.70272 39.73632-52.89472 34.73408C469.97504 309.56544 454.36928 285.90592 459.3664 261.7088L459.3664 261.7088 459.3664 261.7088zM928.11776 427.0592 717.312 749.59872c-13.47584 20.62336-91.02848 134.46656-146.96448 165.62688-48.89088 27.2384-104.76032 33.33632-165.71392 0.1024l-329.71776-230.784c-44.44672-41.07264-51.28704-103.66464-34.10432-166.87616l12.5952-40.14592 93.08672 63.06816-0.3072 0.29696c0 0 106.93632 74.96704 144.06144 96.88576 42.37312 25.00096 144.4352 75.43296 144.4352 75.43296-22.74816 38.23104-24.49408 58.97216-18.10432 87.63392 1.54112 6.93248 11.136 21.2224 17.39264 26.45504 5.07392 9.7792 21.10464 22.81984 39.21408 29.14304 61.34784 21.41696 147.80928-110.26944 147.80928-110.26944l281.34912-415.68256L486.49216 130.40128 249.73312 491.62752c-7.0656 12.19072-21.9648 22.38976-35.5072 16.31744-35.10272-15.86176-10.69568-51.56352-2.59584-64.62464l242.64192-365.04576c19.80928-13.42976 38.72768-18.43712 57.06752-14.16192l409.06752 178.6624C1036.09856 293.5296 983.80288 343.30112 928.11776 427.0592L928.11776 427.0592 928.11776 427.0592zM928.11776 427.0592M733.50144 423.5264l-116.75136-54.2208c-19.86048-9.22624-28.56448-33.024-19.34336-52.88448l0.81408-1.75104c9.22624-19.86048 33.024-28.56448 52.88448-19.34336l116.75136 54.2208c19.86048 9.22624 28.56448 33.024 19.34336 52.88448l-0.81408 1.75104C777.1648 424.04864 753.36704 432.75264 733.50144 423.5264zM648.8576 548.81792l-114.49856-58.8288c-19.4816-10.0096-27.22816-34.13504-17.21856-53.61664l0.88064-1.72032c10.0096-19.4816 34.13504-27.22816 53.61664-17.21856l114.49856 58.8288c19.4816 10.0096 27.22816 34.13504 17.21856 53.61664l-0.88064 1.72032C692.45952 551.07584 668.33408 558.82752 648.8576 548.81792zM563.71712 674.88768l-112.8448-61.94176c-19.2-10.53696-26.28608-34.8672-15.744-54.0672l0.93184-1.69472c10.53696-19.2 34.8672-26.28608 54.0672-15.744l112.8448 61.94176c19.2 10.53696 26.28608 34.8672 15.744 54.0672l-0.93184 1.69472C607.24736 678.33856 582.91712 685.42464 563.71712 674.88768z" p-id="1676" fill="#db5137"></path></svg>