<?xml version="1.0" standalone="no"?><!DOCTYPE svg PUBLIC "-//W3C//DTD SVG 1.1//EN" "http://www.w3.org/Graphics/SVG/1.1/DTD/svg11.dtd"><svg t="1495442205644" class="icon" style="" viewBox="0 0 1024 1024" version="1.1" xmlns="http://www.w3.org/2000/svg" p-id="1847" xmlns:xlink="http://www.w3.org/1999/xlink" width="32" height="32"><defs><style type="text/css"></style></defs><path d="M190.193 483.412c14.446 0 26.139-11.719 26.139-26.138 0-14.445-11.693-26.165-26.139-26.165-0.271 0-0.49 0.149-0.737 0.149l-62.496 0.146c-1.425-0.195-2.9-0.296-4.374-0.296-19.677 0-35.621 16.142-35.621 36.115l-0.343 433.327c0 19.949 15.968 35.598 35.67 35.598 1.917 0 3.809 0.293 5.65 0l61.023 0.023c0.099 0 0.148 0.048 0.248 0.048 0.097 0 0.146-0.048 0.245-0.048l0.737 0 0-0.148c13.413-0.54 24.175-11.422 24.175-24.96 0-13.56-10.76-24.442-24.175-24.982l0-0.394-50.949 0 1.45-402.276 49.498 0zM926.522 445.948c-19.283-31.445-47.339-44.172-81.289-45.546-1.77-0.247-3.537-0.393-5.381-0.393l-205.447-0.689c13.463-39.06 22.699-85.589 22.699-129.317 0-28.35-3.194-55.963-9.042-82.543l-0.49 0.049c-10.638-46.579-51.736-81.315-100.967-81.315-57.264 0-95.466 48.151-95.466 106.126 0 3.242-0.295 6.387 0 9.532-2.996 108.387-91.24 195.549-196.236 207.513l0 54.882-0.786 222.227 0 229.745 519.481-0.021c19.357 0.049 30.24-4.818 47.804-16.116 16.683-10.761 29.237-25.501 37.491-42.156 2.26-3.341 4.029-7.075 5.106-11.201l77.018-344.324c1.056-4.053 1.349-8.181 1.056-12.161 1.57-21.793-3.292-44.295-15.551-64.291zM893.826 498.838l-82.984 367.783-0.099-0.049c-2.555 6.142-6.88 11.596-12.872 15.427-4.177 2.727-8.774 4.351-13.415 4.964-1.498-0.195-3.046 0-4.62 0l-477.029-0.54-0.172-407.409c89.323-40.266 154.842-79.671 188.596-173.661 0.073 0.025 0.125 0.049 0.195 0.073 2.999-9.137 6.314-20.734 8.697-33.164 5.551-29.186 5.259-58.124 5.259-58.124-4.937-37.98 25.941-52.965 44.364-52.965 25.304 0.861 50.264 33.657 50.264 52.327 0 0 5.601 27.564 5.65 57.191 0.048 37.366-4.667 56.848-4.667 56.848l-0.467 0c-5.873 30.879-16.214 60.139-30.465 86.965l0.368 0.343c-2.359 4.816-3.709 10.221-3.709 15.943 0 19.923 19.089 21.742 38.766 21.742l238.762 0.27c0 0 14.666 0.466 14.691 0.466l0 0.1c12.132-0.639 24.222 5.208 31.1 16.41 5.504 9.016 6.438 19.605 3.486 28.988l0.3 0.074zM264.827 936.319c0.319 0.025 0.441 0.025 0.296-0.025 0.244-0.048 0.367-0.075-0.296-0.075s-0.539 0.027-0.271 0.075c-0.122 0.049-0.024 0.049 0.271 0.025z" p-id="1848" fill="#db5137"></path></svg>