<?xml version="1.0" standalone="no"?><!DOCTYPE svg PUBLIC "-//W3C//DTD SVG 1.1//EN" "http://www.w3.org/Graphics/SVG/1.1/DTD/svg11.dtd"><svg t="1495439702165" class="icon" style="" viewBox="0 0 1024 1024" version="1.1" xmlns="http://www.w3.org/2000/svg" p-id="5815" xmlns:xlink="http://www.w3.org/1999/xlink" width="32" height="32"><defs><style type="text/css"></style></defs><path d="M852.562954 246.692518c-2.159176-1.558495-4.461615-2.939959-6.90527-4.108574L570.425156 83.712587l-8.021697-4.691859c-34.241872-17.352203-74.450642-17.032932-107.932198 1.098008L172.29867 243.009639l-5.825682 3.452635c-34.224476 21.087271-54.656831 57.791218-54.656831 98.159624l0 325.995679c0 39.571251 19.829628 75.884294 53.91391 97.644901l99.788727 57.596789 0 0.124843 183.040826 105.541755c1.274016 0.831948 2.566452 1.574868 3.929496 2.337231l1.629103 0.920976c16.73208 9.188266 35.836183 14.057157 55.258535 14.057157 19.423375 0 38.509059-4.868891 55.258535-14.057157l2.337231-1.417279c0.778736-0.461511 1.594311-0.919952 2.337231-1.418302l190.192713-109.686145 0.034792-0.052189 85.411275-49.29266 9.207709-5.452175c32.543184-21.015639 52.283784-56.622602 52.798507-95.628988l0-327.427284C906.954749 304.766169 886.150934 267.478937 852.562954 246.692518M481.029126 887.527792l-2.160199-1.240247-13.171997 23.777543 11.296277-24.892947-159.278633-91.874477c-0.070608-1.910513-0.106424-3.806699-0.106424-5.734608 0-48.726771 19.016099-94.672196 53.524031-129.340787 34.543747-34.525328 80.489172-53.53938 129.374556-53.53938l24.009833 0c100.848872 0 182.897563 82.045621 182.897563 182.880167 0 0.636496 0 1.239224 0 1.87572l-165.848259 95.734388-1.752924 1.062192c-0.707105 0.424672-1.451048 0.851391-2.159176 1.293459C520.158309 896.804063 496.965074 896.255571 481.029126 887.527792M509.428943 544.642444c0 0-0.034792 0.017396-0.12382 0.017396l-0.089028-0.053212-86.578868-49.946552-1.381463-0.939395-0.584308-101.222379 88.668459-51.186799 86.491887 49.841152 2.832512 102.002139L509.428943 544.642444zM852.562954 671.483294c-0.282433 20.380166-10.69355 39.182394-26.930349 49.698912l-65.704444 37.926798c-11.420097-94.884021-78.966493-172.662455-168.450527-199.062731l35.447327-20.448728c15.332197-10.004865 24.645306-26.860764 24.859177-46.300512L651.784138 392.267035c0-19.228947-9.845229-36.685527-24.877597-45.768393l-92.405573-53.453423c-15.616676-8.055466-34.172287-8.515954-51.699476 0.779759l-90.104157 52.036143c-16.165168 10.075473-25.832342 27.444049-25.832342 46.477544l0 101.382015c0 18.662035 9.383718 35.855626 26.310226 46.761l35.995819 20.750603c-36.030611 11.296277-69.070098 31.109532-96.513124 58.569954-38.82833 39.005362-62.464657 89.005127-68.077491 142.812613l-70.397327-40.688701c-17.509792-11.205203-27.974122-30.381961-27.974122-51.308573L166.208974 344.621898c0-21.35333 10.746762-40.74089 28.381397-51.612495l286.406009-165.405167c8.498558-4.603855 18.306948-7.028067 28.381397-7.028067 9.755178 0 19.333324 2.336208 26.858718 6.089695l283.360649 163.688059 3.64604 2.177596c18.361183 10.994402 29.319769 30.381961 29.319769 51.876508L852.562954 671.483294z" p-id="5816" fill="#ffffff"></path></svg>